<?xml version="1.0" encoding="UTF-8" standalone="no"?>
<!DOCTYPE svg PUBLIC "-//W3C//DTD SVG 1.1//EN" "http://www.w3.org/Graphics/SVG/1.1/DTD/svg11.dtd">
<svg width="100%" height="100%" viewBox="0 0 983 1039" version="1.1" xmlns="http://www.w3.org/2000/svg" xmlns:xlink="http://www.w3.org/1999/xlink" xml:space="preserve" xmlns:serif="http://www.serif.com/" style="fill-rule:evenodd;clip-rule:evenodd;stroke-linecap:round;stroke-miterlimit:2;">
    <g transform="matrix(1,0,0,1,-1214.32,-115.375)">
        <g id="Mykola">
            <g id="r-headphone">
                <path d="M1386.85,727.271L1375.64,725.887L1361.21,723.422L1346.94,716.208L1329.44,709.3L1311.48,702.393L1294.91,693.029L1281.4,680.902L1276.18,671.078L1275.55,652.812L1281.57,635.579L1282.12,614.245L1281.31,590.916L1285.22,578.022L1288.98,556.224L1293.49,538.418L1297.85,518.463L1302.52,497.436L1308.07,479.847L1315.6,465.867L1321.77,444.693L1323.27,428.882L1330.24,415.241L1337.32,402.346L1340.93,385.461L1347.11,374.563L1350.92,363.421L1360.11,355.439L1371.41,353.597L1387.82,353.275L1402.73,354.474L1419.45,355.98L1438.73,357.182L1451.68,357.935L1464.18,358.683L1472.15,359.734" style="fill:none;stroke:black;stroke-width:0.75px;"/>
                <path d="M1563.39,185.901L1551.91,188.009L1540.25,194.184L1526.43,202.919L1511.09,210.901L1493.59,219.937L1484.53,228.522L1476.24,237.106L1467.04,244.034L1459.46,253.719L1449.17,256.28L1434.9,262.304L1420.93,269.834L1409.72,276.009L1400.51,280.376L1391.76,286.401L1382.4,294.985L1376.41,303.57L1367.51,314.714L1358.61,326.763L1351.7,339.715L1343.41,351.161L1339.11,359.745L1330.82,371.342L1326.83,378.872L1321.77,388.511L1316.7,396.945L1311.79,404.023L1309.18,410.951L1295.06,413.512L1283.7,415.62L1267.9,416.975L1261.46,417.879L1255.62,421.795L1250.71,431.885L1243.65,443.934L1238.85,460.014L1232.1,476.129L1226.22,493.9L1221,506.551L1217.01,525.075L1215.16,539.835L1215.45,557.606L1216.51,570.558L1219.22,577.486L1224.94,583.661L1225.22,591.342L1233.65,594.805L1242.69,595.709L1251.73,600.98L1259.26,606.402L1265.73,611.071L1265.4,620.71L1259.71,633.662L1260.74,644.806L1276.71,647.367" style="fill:none;stroke:black;stroke-width:0.75px;"/>
                <path d="M1379.8,349.328L1386.27,341.653L1385.2,342.927L1393.04,347.819L1400.41,347.196L1397.34,339.365L1396.72,332.15L1400.18,326.01L1409.97,324.15L1411.18,330.175L1419.16,340.717L1425.49,344.332L1431.51,343.558L1437.23,340.028L1443.7,329.28L1440.63,319.763L1434.95,313.469L1429.89,306.408L1420.37,302.57L1411.47,299.807" style="fill:none;stroke:black;stroke-width:0.75px;"/>
                <path d="M1429.04,323.473L1424.13,322.705L1422.59,331.892L1432.37,332.579L1429.04,323.473Z" style="fill:none;stroke:black;stroke-width:0.75px;"/>
                <path d="M1450.38,329.827L1452.04,335.999L1460.17,336.289L1462.88,325.697L1459.8,317.101L1459.78,311.114L1465.36,308.658L1473.49,303.439L1479.51,299.909L1485.08,297.299L1493.07,298.052L1500.3,296.19" style="fill:none;stroke:black;stroke-width:0.75px;"/>
            </g>
            <g>
                <path d="M1933.41,951.986L1942.74,953.336L1953.28,957.251L1962.16,960.101L1971.5,962.21L1980.99,967.18L1992.29,968.069L1999.21,961.773L2013.82,951.644L2025.42,941.206L2035.66,931.229L2041.83,923.4L2047.71,914.497L2055.69,904.366L2064.43,888.558L2072.26,874.282L2083.4,855.558L2094.09,838.213L2100.87,821.327L2109,803.223L2117.14,788.947L2126.61,772.218L2133.99,753.19L2143.03,732.786L2151.91,717.589L2156.89,706.384L2159.6,698.248L2159.4,685.047L2155.87,673.995L2147.58,664.017L2136.83,655.114L2123.48,648.36L2111.51,640.836L2107.36,631.012L2101.37,623.49L2091.7,616.122L2083.87,610.903" style="fill:none;stroke:black;stroke-width:0.75px;"/>
                <path d="M2149.15,437.493L2152.6,447.099L2154.1,456.286L2160.13,468.92L2162.23,478.86L2163.12,493.92L2164.62,508.077L2171.69,516.071L2171.07,526.61L2171.04,537.454L2172.39,554.472L2174.49,567.274L2176.75,580.678L2183.07,592.726L2188.8,608.54L2193.16,623.148L2195.57,637.606L2193.99,653.721L2190.61,669.384L2184.13,689.174L2177.2,710.861L2173.48,734.506L2168.26,749.115L2165.64,760.26L2168.2,770.2L2175.13,777.881L2185.52,789.025L2189.74,796.104L2186.22,818.686L2177.76,841.369L2161.79,864.864L2148.12,890.919L2132.76,909.142L2118.79,924.654L2105.44,934.443L2098.61,945.255L2089.55,957.454L2077.42,961.813L2067.29,954.749L2071.35,941.397L2078.43,926.971L2083.55,915.771L2071.7,923.953L2060.96,924.402L2050.52,923.478L2043.3,921.94" style="fill:none;stroke:black;stroke-width:0.75px;"/>
                <path d="M2106.86,560.34L2112.88,568.172L2116.95,575.849L2122.07,581.723L2125.08,587.145L2128.24,602.205L2133.66,612.597L2140.59,628.561L2144.8,638.351L2150.52,650.098L2153.54,659.134L2155.95,666.213L2155.17,676.002" style="fill:none;stroke:black;stroke-width:0.75px;"/>
            </g>
            <path d="M1277.88,964.786L1308.33,930.267L1333.99,891.569L1356.91,846.944L1376.39,795.352L1392.12,748.655L1395.89,697.207L1391.34,644.589L1395.41,600.352L1402.93,554.346L1414.91,507.3L1427.39,459.865L1444.49,418.043L1465.36,381.438L1485.12,345.813L1500.16,311.892L1519.66,279.464L1544.3,255.056L1569.95,229.253L1598.35,205.892L1624.01,190.201L1656.16,172.063L1684.9,154.28L1717.4,137.892L1746.48,123.247L1790.61,117.3L1826.88,116.214L1859.38,124.767L1911.03,142.898L1944.22,151.451L1977.06,170.267L2011.27,194.556L2040.35,216.451L2056.99,254.063L2067.25,284.51L2072.01,320.773L2080.57,355.668L2090.14,401.168L2094.25,429.905L2098.34,463.089L2098.84,522.642L2087.34,569.852L2078.24,615.01L2074.4,657.431L2063.94,689.931L2053.48,720.378L2040.58,752.194L2015.12,789.826L2002.92,820.273L1980.61,850.378L1957.24,883.905L1941.55,921.878L1931.79,949.247L1925.51,972.51L1923.07,987.905" style="fill:none;stroke:black;stroke-width:0.75px;"/>
            <g id="glasses">
                <path d="M1646.88,146.951L1641.28,163.365L1638.47,178.76L1641.18,198.944L1646.99,223.911L1658.62,235.53L1672.31,245.793L1685.99,255.372L1701.05,265.635L1722.6,273.503L1743.47,276.576L1767.41,282.385L1790.34,277.852L1809.84,271.227L1825.91,256.931L1838.57,234.964L1840.93,211.253L1834.63,186.846L1813.72,166.273L1786.52,147.096L1753.41,134.543L1723.08,127.918L1691.74,125.471L1671.86,128.892L1658.26,135.05L1646.88,146.951Z" style="fill:white;stroke:black;stroke-width:0.75px;"/>
                <path d="M1931.21,263.273L1924.59,272.344L1915.98,283.744L1911.85,299.066L1912.94,315.002L1919.8,328.976L1923.46,347.721L1927.26,358.509L1933.88,367.334L1941.6,376.773L1954.47,386.947L1967.34,394.425L1984.75,401.657L1998.6,410.483L2016.99,416.734L2036.78,421.484L2052.72,421.334L2067.18,418.825L2076.13,414.2L2086.31,406.581L2093.78,399.71L2103.84,390.342L2112.66,380.066L2119.77,368.075L2123.08,354.706L2122.42,338.214L2116.03,322.097L2107.66,307.855L2098.04,295.118L2085.43,285.373L2067.57,275.877L2055.75,272.379L2040.75,262.884L2020.03,255.263L1997.67,252.639L1978.7,252.01L1954.8,254.025L1943.43,255.619L1931.21,263.273Z" style="fill:white;stroke:black;stroke-width:0.75px;"/>
                <path d="M1844.31,213.201L1853.87,223.118L1863.79,228.757L1874.2,235.122L1884.99,239.78L1897.25,244.308L1906.93,247.373L1920.42,251.17L1932.06,254.848L1939.91,255.828" style="fill:none;stroke:black;stroke-width:0.75px;"/>
                <path d="M1816.96,266.752L1828.48,261.88L1839.15,260.131L1850.06,259.501L1860.72,259.242L1872.61,260.22L1881.81,260.831L1891.25,263.65L1897.25,269.779L1904.12,276.889L1906.81,283.631L1908.77,291.231L1911.35,297.115" style="fill:none;stroke:black;stroke-width:0.75px;"/>
                <path d="M1636.62,179.126L1625.5,171.505L1616.62,163.884L1606.51,158.509L1597.26,153.012L1604.35,139.766L1609.5,132.02L1613.55,128.396L1621.88,128.757L1631.57,131.209L1641.13,133.538L1651.3,134.026L1656.4,134.839" style="fill:none;stroke:black;stroke-width:0.75px;"/>
                <path d="M1592.6,151.095L1586.48,156.489L1580.11,164.334L1576.11,170.708L1567.62,181.495L1565.74,188.36L1558.62,198.656L1552.75,208.34L1546.75,218.024L1541,226.727L1532.63,235.308L1527.64,247.076L1521.51,259.456L1515.89,271.224L1507.52,280.908L1502.27,295.863L1517.08,282.674L1527.37,270.305L1537.42,260.06L1548.21,247.441L1556.42,238.945L1565.25,227.826L1571.99,217.956L1581.92,204.213L1587.56,193.843L1594.55,186.596L1603.13,182.471L1609.62,181.717L1618.64,176.967L1623.42,170.595" style="fill:none;stroke:black;stroke-width:0.75px;"/>
                <path d="M2128.81,338.667L2131.87,348.827L2135.06,356.427L2143.27,359.246L2151.61,363.904L2158.35,370.399L2165.46,374.93L2164.7,385.717L2160.95,399.323L2157.94,412.807L2152.7,421.633L2147.2,432.91L2146.32,442.226L2142.45,455.343L2134.95,475.201L2130.58,492.362L2126.83,504.743L2119.12,518.34L2111.75,534.03L2109.38,544.817L2105.13,558.301L2097.01,569.823L2091.13,580.733L2088.57,567.874L2091.81,550.628L2095.37,536.385L2098.79,523.898L2101.48,515.15L2105.65,501.539L2113.86,476.66L2121.57,454.508L2128.92,435.793L2132.35,423.552L2127.46,413.057L2122.21,402.312L2114.46,401.544L2105.09,406.079L2099.84,410.86L2093.97,406.607" style="fill:none;stroke:black;stroke-width:0.75px;"/>
            </g>
            <path d="M1561.35,602.722L1560.4,615.026L1562.05,632.461L1568.46,641.25L1572.8,650.555L1582.83,661.722L1596.07,671.856L1609.72,676.508L1629.98,681.265L1655,689.02L1672.79,693.879L1691.83,697.097L1710.95,704.334L1728.12,711.986L1747.35,718.293L1762.76,722.737L1781.27,726.253L1796.05,727.7L1814.15,727.903L1830.79,726.11L1849.4,724.724L1859.85,722.3" style="fill:none;stroke:black;stroke-width:0.75px;"/>
            <path d="M1747.6,321.801L1735.08,328.108L1716.64,333.071L1700.86,337.827L1689.38,340.826L1674.85,346.513L1663.89,353.337L1651.35,363.263L1638.18,371.329L1625.01,382.806L1613.73,393.249L1606.25,401.831L1598.56,416.514L1594.04,426.456L1589.99,440.104L1585.57,455.717L1578.92,469.986L1571.86,480.223L1558.48,492.01L1548.68,509.898L1546.35,523.236L1547.17,539.056L1558.75,548.052L1580.77,551.671L1600.83,555.186" style="fill:none;stroke:black;stroke-width:0.75px;"/>
            <path d="M1935.23,408.51L1935.32,422.262L1939.14,441.908L1946.17,461.036L1954.14,480.062L1960.86,499.501L1966.34,516.458L1970.67,540.756L1967.21,557.006L1965.52,575.204L1958.25,589.887L1950.24,601.054L1939.17,616.46L1930.32,631.246L1925.37,642.516L1921.89,655.958L1917.45,670.434L1912.92,681.911L1909.55,693.492" style="fill:none;stroke:black;stroke-width:0.75px;"/>
            <path d="M1627.72,554.618L1648.39,558.529L1660.9,559.038L1678.17,561.83L1696.99,565.343L1711.57,567.718L1727.69,568.537L1742.27,569.972L1749.82,570.489L1764.09,574.52L1774.12,580.103L1781.57,588.789L1794.59,599.956L1809.17,612.26L1824.48,621.463L1839.88,632.733L1843.5,641.108L1853.74,655.171L1868.83,670.68" style="fill:none;stroke:black;stroke-width:0.75px;"/>
            <path d="M1776.19,346.749L1779.49,354.219L1784.76,359.855L1792.24,361.321L1800.33,363.158L1810.38,362.404L1819.57,359.405L1827.66,353.658L1834.65,348.91L1837.1,338.415L1833.71,330.045L1824.09,327.671L1814.23,327.166L1802.99,328.637L1791.36,330.841L1783.37,335.132L1778.25,338.687L1776.19,346.749Z" style="fill:none;stroke:black;stroke-width:0.75px;"/>
            <path d="M1862.96,370.232L1860.08,381.019L1863.15,393.768L1871.12,402.716L1879.21,405.168L1885.95,404.793L1892.44,401.919L1898.82,396.672L1901.15,384.932L1899.4,373.563L1898.53,366.567L1895.28,360.694L1892.03,355.947L1887.15,353.448L1879.78,354.306L1873.79,357.616L1869.29,361.293L1862.96,370.232Z" style="fill:none;stroke:black;stroke-width:0.75px;"/>
            <path d="M1765.64,360.426L1763.27,354.179L1759.65,345.558L1760.61,336.313L1767.84,327.067L1773.85,321.57L1784.02,314.199L1792.11,309.701L1798.85,306.203L1806.09,303.204L1810.62,295.458L1816.87,287.462L1824.1,283.464L1831.46,278.217L1840.9,271.97L1847.76,269.596L1857.57,268.834L1870.19,268.943L1879.27,272.13L1886.13,275.562L1891.89,281.691L1895.32,289.782L1901.58,297.994L1906.6,308.536L1910.16,316.994L1912.85,327.291L1915.92,335.259L1916.65,344.207L1916.65,353.156L1914.02,363.453L1913.26,374.485L1914.1,385.517L1914.83,391.646L1911.96,400.962L1908.96,407.582L1904.21,415.549L1898.09,421.678L1892.22,426.214" style="fill:none;stroke:black;stroke-width:0.75px;"/>
            <path d="M1626.99,474.182L1635.94,466.685L1648.86,457.202L1657.65,451.808L1668.07,446.311L1675.92,442.063L1689.64,438.565L1702.15,436.816L1713.18,436.066L1722.25,437.29L1735.86,436.78L1751.18,436.505L1764.91,434.506L1773.86,435.477L1785.63,442.464L1792.25,446.632L1798.37,453.741L1802.79,458.399L1807.57,460.974L1814.43,463.057L1820.81,463.42L1829.88,464.891L1835.39,476.414L1843.36,486.343L1849.73,491.124L1857.45,496.149L1864.19,502.524L1869.34,512.207L1872.29,521.278L1880.25,535.253L1883.32,546.898L1884.91,558.666L1886.38,571.169L1887.36,582.324L1889.31,593.111L1894.83,601.569L1881.71,593.825L1871.84,584.58L1862.84,573.213L1854.47,563.592L1846.48,553.972L1837.85,543.725L1828.48,533.105L1821.99,527.858L1812.99,521.722L1800.76,513.605L1789.77,507.234L1776.42,500.362L1761.68,495.489L1751.19,492.364L1725.63,488.238L1709.01,486.612L1688.15,485.607L1664.92,484.351L1647.44,481.977L1636.94,477.479L1626.99,474.182Z" style="fill:none;stroke:black;stroke-width:0.75px;"/>
            <path d="M1739.71,484.634L1745.1,476.763L1750.12,469.017L1758.34,462.645L1765.57,459.771L1771.7,459.639L1780.28,463.194L1783.95,473.613L1785.05,480.11L1783.55,485.381L1780.42,489.304L1776.55,492.736" style="fill:none;stroke:black;stroke-width:0.75px;"/>
            <path d="M1821.4,517.676L1823.83,509.431L1826.28,504.054L1823.14,494.933L1818.77,488.311L1808.4,483.189L1800.65,480.69L1793.28,480.183L1788.53,482.022" style="fill:none;stroke:black;stroke-width:0.75px;"/>
            <path d="M1705.3,478.75L1715.83,466.756L1721.1,458.01L1724.9,452.388L1732.01,451.136L1739.97,450.632L1747.7,452.101L1755.66,454.057L1761.3,456.631" style="fill:none;stroke:black;stroke-width:0.75px;"/>
            <path d="M1670.7,477.913L1680.14,466.046L1686.26,458.8L1692.88,453.803L1700.84,450.304L1708.93,449.302L1716.9,449.668L1723.77,451.502" style="fill:none;stroke:black;stroke-width:0.75px;"/>
            <path d="M1842.64,541.144L1846.44,529.649L1848.28,521.029L1849.13,513.157L1839.87,505.161L1830.38,500.289" style="fill:none;stroke:black;stroke-width:0.75px;"/>
            <path d="M1863.15,566.079L1864.74,554.835L1868.54,544.35L1869.87,533.73L1865.73,524.734L1858.99,519.987L1853.86,516.738" style="fill:none;stroke:black;stroke-width:0.75px;"/>
        </g>
        <g id="Hoof" transform="matrix(1,0,0,1,-5.97783,56.1111)">
            <g transform="matrix(1,0,0,1,10.5863,-2.48595)">
                <path d="M1489.74,619.168L1511.71,575.427L1539.68,522.715L1566.62,528.688L1612.16,557.966L1636.36,575.923L1647.29,582.296L1652.45,558.063L1660.78,545.331L1725.14,565.603L1834.41,733.306L1717.53,772.891L1552.32,739.069L1505.43,690.296L1486.99,646.777L1489.74,619.168Z" style="fill:white;"/>
            </g>
            <path d="M1431.15,599.009C1436.55,602.892 1453.64,596.301 1462.34,621.479C1473.24,652.98 1459.09,667.961 1457.63,671.784C1456.66,674.337 1457.37,677.418 1456.09,679.833C1455.37,681.191 1432.31,691.146 1426.27,808.046C1424.32,845.821 1432.3,844.326 1448.11,878.808C1449.65,882.151 1450.29,885.853 1451.8,889.205C1453.36,892.644 1458.18,903.335 1480.77,926.424C1498.06,944.092 1499.02,942.761 1519.34,957.078C1536.02,968.834 1537.48,964.925 1557.74,966.8C1562.34,967.227 1607.72,971.428 1615.25,960.954C1617.82,957.385 1622.9,919.965 1638.71,913.619C1644.42,911.323 1659.83,910.016 1661.68,909.859C1664.8,909.594 1683.28,908.026 1698.91,922.093C1700.72,923.722 1701.15,926.474 1702.76,928.297C1705.49,931.378 1708.53,934.214 1711.82,936.682C1714.38,938.603 1717.62,939.478 1720.2,941.377C1730.06,948.632 1730.17,953.564 1749.38,947.517C1752.25,946.613 1778.99,938.196 1783.92,932.648C1786.78,929.432 1788.38,925.279 1790.8,921.722C1795.28,915.142 1798.25,915.482 1803.36,897.453C1808.17,880.439 1807.62,880.326 1810.55,873.697C1818.99,854.674 1821.68,855.044 1820.77,834.217C1820.58,829.917 1819.46,825.696 1819.2,821.399C1818.1,803.213 1821.39,791.332 1821.36,790.623C1821.34,790.225 1810.64,744.666 1806.1,733.878C1803.77,728.364 1800.12,723.469 1797.85,717.929C1795.44,712.013 1794.86,705.408 1792.11,699.639C1791.02,697.352 1790.14,697.946 1775.36,672.79C1773.33,669.341 1761.7,649.555 1745.79,632.456C1742.79,629.234 1738.94,626.893 1735.88,623.739C1730.84,618.56 1726.76,612.479 1721.52,607.503C1719.84,605.906 1716.84,606.04 1715.37,604.253C1708,595.352 1710.89,594.234 1712.38,582.857C1712.81,579.602 1711.86,579.61 1713.32,541.839C1717.29,542.967 1760.03,552.379 1779.05,570.51C1813,602.866 1812.66,603.278 1837.91,642.949C1850.97,663.47 1848.98,664.365 1861.38,685.037C1869.12,697.92 1872.87,722.634 1876.81,739.534C1880.17,753.922 1896.14,793.969 1896.09,828.91C1896.06,847.565 1890.91,846.704 1887.29,878.824C1880.3,940.868 1855.19,959.263 1847.8,970.412C1843.52,976.876 1839.25,1001.7 1806.07,1020.21C1799.35,1023.96 1792.18,1026.81 1785.24,1030.11C1747.84,1047.86 1734.32,1041.6 1723.9,1042.85L1721.59,1029.16C1728.62,1014.64 1735.65,1000.11 1742.68,985.587C1739.51,984.856 1703.06,976.445 1703.06,976.445C1699.13,976.229 1695.41,978.3 1691.61,979.296C1672.53,984.286 1630.34,989.37 1624.47,993.546C1620.57,996.321 1618.07,1001.13 1616.95,1005.79C1615.62,1011.33 1614.73,1017.86 1617.41,1022.89C1622.02,1031.54 1632.9,1035.7 1637.51,1044.35L1624.33,1075.02C1611.52,1070.82 1599.21,1065.18 1586.4,1060.98C1580.73,1059.12 1574.62,1058.82 1568.98,1056.87C1546.87,1049.23 1548.67,1045.08 1526.12,1038.58C1522.18,1037.44 1517.86,1038.63 1513.82,1037.88C1489.09,1033.27 1471.73,1017.01 1470.58,1016.33C1465.66,1013.38 1460.12,1011.62 1455.03,1008.98C1443.11,1002.77 1444.66,1001.13 1437.42,990.005C1430.85,979.893 1411.16,952.321 1406.66,942.67C1404.68,938.425 1403.43,933.831 1401.1,929.768C1398.81,925.77 1394.73,922.871 1392.9,918.643C1391.15,914.611 1391.96,909.853 1390.67,905.654C1388.8,899.598 1385.54,894.047 1383.49,888.053C1378.57,873.684 1381.9,869.107 1376.3,851.647C1373.98,844.391 1370.02,837.519 1369.09,829.958C1368.13,822.248 1370.35,814.47 1370.74,806.711C1371.08,799.841 1370.59,792.928 1371.27,786.083C1371.72,781.507 1373.9,777.177 1374.11,772.584C1374.16,771.449 1370.66,756.778 1376.56,737.022C1377.37,734.326 1384.83,709.314 1387.79,703.695C1389.94,699.616 1394.89,697.346 1396.68,693.096C1398.41,688.984 1397.42,684.204 1397.85,679.765C1399.8,659.949 1403.46,660.771 1406.2,640.972C1408,628.037 1408.99,628.436 1413.75,616.874C1414.92,614.027 1414.73,610.654 1416.27,607.987C1417.73,605.449 1430.71,598.275 1431.15,599.009Z" style="fill:rgb(242,242,242);stroke:black;stroke-width:20px;"/>
            <path d="M1440.9,594.25C1442.04,591.149 1443.2,588.008 1444.93,585.192C1453.44,571.315 1457.72,578.23 1469.58,589.245C1504.67,621.854 1505.24,621.306 1510.99,628.986C1521.95,643.6 1551.18,684.285 1552.41,686.166C1568.39,710.566 1571.43,708.25 1586.12,733.62C1596.49,751.544 1604.41,757.919 1611.44,778.392C1621.02,806.341 1621.57,806.123 1622.33,808.575C1623.44,812.146 1622.81,816.155 1624.16,819.642C1626.54,825.761 1630.99,830.93 1633.36,837.049C1632.87,828.185 1626.68,807.413 1634.5,735.242C1636.83,713.807 1640.35,714.522 1641.55,693.199C1643.84,652.248 1638.13,650.96 1638.24,645.867C1638.5,634.146 1650.21,603.733 1651.58,600.18C1664.32,567.093 1653.82,550.888 1679.41,536.605C1694.29,528.305 1722.7,546.207 1715.3,544.564" style="fill:none;stroke:black;stroke-width:20px;"/>
            <path d="M1501.47,617.223C1501.66,616.892 1507.69,609.505 1512.58,598.311C1515.19,592.317 1542.45,529.895 1547.07,524.187C1556.15,512.981 1586.92,534.39 1589.16,535.519C1613.42,547.77 1625,563.313 1637.29,569.22C1637.69,569.413 1680.62,589.696 1659.15,579.552" style="fill:none;stroke:black;stroke-width:20px;"/>
        </g>
    </g>
</svg>
